<?xml version="1.0" encoding="UTF-8" standalone="no"?>
<svg
   xmlns:dc="http://purl.org/dc/elements/1.1/"
   xmlns:cc="http://creativecommons.org/ns#"
   xmlns:rdf="http://www.w3.org/1999/02/22-rdf-syntax-ns#"
   xmlns:svg="http://www.w3.org/2000/svg"
   xmlns="http://www.w3.org/2000/svg"
   viewBox="0 0 1610.6801 1578.7733"
   height="1578.7733"
   width="1610.6801"
   xml:space="preserve"
   id="svg2"
   version="1.1"><metadata
     id="metadata8"><rdf:RDF><cc:Work
         rdf:about=""><dc:format>image/svg+xml</dc:format><dc:type
           rdf:resource="http://purl.org/dc/dcmitype/StillImage" /></cc:Work></rdf:RDF></metadata><defs
     id="defs6"><clipPath
       id="clipPath18"
       clipPathUnits="userSpaceOnUse"><path
         id="path16"
         d="M 0,1184.076 H 1208.008 V 0 H 0 Z" /></clipPath></defs><g
     transform="matrix(1.3333333,0,0,-1.3333333,0,1578.7733)"
     id="g10"><g
       id="g12"><g
         clip-path="url(#clipPath18)"
         id="g14"><g
           transform="translate(745.7138,308.2961)"
           id="g20"><path
             id="path22"
             style="fill:#f25c19;fill-opacity:1;fill-rule:nonzero;stroke:none"
             d="m 0,0 c 6.654,7.027 48.276,-62.546 60.753,-88.036 8.191,-16.735 13.767,-34.483 13.723,-53.42 -0.016,-6.723 -0.465,-13.591 -1.916,-20.126 -1.821,-8.205 -8.727,-12.136 -16.85,-10.723 -12.444,2.164 -21.905,8.662 -26.785,20.411 -3.063,7.375 -5.263,15.189 -7.074,22.987 -2.509,10.804 -4.432,21.752 -6.351,32.683 -4.38,24.937 -8.683,49.887 -12.845,74.86 C 1.451,-14.135 0.831,-6.808 0,0" /></g><g
           transform="translate(460.6425,260.8911)"
           id="g24"><path
             id="path26"
             style="fill:#f25c19;fill-opacity:1;fill-rule:nonzero;stroke:none"
             d="m 0,0 c -3.474,-26.956 -9.07,-53.441 -19.185,-78.814 -4.35,-10.914 -9.13,-21.574 -16.558,-30.803 -4.309,-5.353 -8.673,-10.835 -16.88,-8.16 -9.283,3.027 -17.402,7.958 -18.224,18.518 -0.56,7.183 0.657,14.737 2.344,21.824 7.315,30.715 19.01,59.814 33.661,87.74 4.576,8.721 9.051,17.519 14.128,25.946 3.871,6.425 7.386,7.141 13.872,3.396 C -2.687,37.248 1.312,10.181 0,0" /></g><g
           transform="translate(183.6739,767.7591)"
           id="g28"><path
             id="path30"
             style="fill:#f25c19;fill-opacity:1;fill-rule:nonzero;stroke:none"
             d="m 0,0 c -10.731,4.711 -21.353,9.687 -31.887,14.826 -3.286,1.602 -6.306,3.902 -9.135,6.258 -11.565,9.634 -10.446,23.734 2.677,31.656 2.439,1.472 5.926,2.279 8.72,1.888 8.53,-1.191 17.473,-1.833 25.329,-4.992 C 21.457,39.276 110.791,-15.189 104.897,-24.197 102.911,-27.231 16.368,-7.186 0,0" /></g><g
           transform="translate(424.0881,915.1052)"
           id="g32"><path
             id="path34"
             style="fill:#f25c19;fill-opacity:1;fill-rule:nonzero;stroke:none"
             d="m 0,0 c -13.1,9.474 -25.36,20.162 -32.722,32.828 -10.223,17.586 -19.487,35.783 -28.209,54.171 -5.531,11.66 -10.014,23.937 -13.729,36.31 -4.368,14.549 5.571,27.668 14.776,33.151 4.34,2.586 9.441,3.008 13.884,-0.731 6.703,-5.642 12.535,-11.923 15.495,-20.43 5.073,-14.581 10.246,-29.128 15.33,-43.705 C -8.259,71.766 6.816,27.265 0,0" /></g><g
           transform="translate(802.311,937.7993)"
           id="g36"><path
             id="path38"
             style="fill:#f25c19;fill-opacity:1;fill-rule:nonzero;stroke:none"
             d="m 0,0 c -5.777,1.643 22.03,81.118 42.055,103.113 4.912,5.396 11.061,9.873 17.239,13.842 5.104,3.279 10.882,5.94 16.725,7.556 15.651,4.328 21.086,-0.709 17.398,-16.476 C 90.475,95.461 86.767,83.007 82.483,70.822 77.922,57.852 70.641,46.567 58.903,38.542 52.821,34.384 47.058,29.686 41.538,24.795 34.207,18.299 2.348,-0.668 0,0" /></g><g
           transform="translate(884.4459,429.835)"
           id="g40"><path
             id="path42"
             style="fill:#f25c19;fill-opacity:1;fill-rule:nonzero;stroke:none"
             d="m 0,0 c 1.536,-0.329 79.766,-42.329 108.008,-61.016 9.083,-6.01 17.273,-14.172 23.967,-22.824 12.555,-16.226 6.494,-30.767 -13.707,-35.328 -7.504,-1.694 -14.783,-1.019 -21.101,3.871 -7.298,5.647 -14.967,10.94 -21.592,17.306 -21.77,20.917 -43.28,42.108 -64.607,63.479 C -1.006,-22.514 -10.836,2.997 0,0" /></g><g
           transform="translate(1080.6355,560.5339)"
           id="g44"><path
             id="path46"
             style="fill:#f25c19;fill-opacity:1;fill-rule:nonzero;stroke:none"
             d="m 0,0 c -10.828,2.205 -21.871,3.678 -32.444,6.76 -24.82,7.237 -49.455,15.12 -74.076,23.021 -6.425,2.062 -26.185,13.927 -25.986,19.528 0.234,6.55 106.185,0.269 151.636,-7.888 C 28.193,39.795 32.115,34.424 30.659,25.676 28.348,11.792 21.335,-1.18 0,0" /></g><g
           transform="translate(890.5065,265.1368)"
           id="g48"><path
             id="path50"
             style="fill:#ef3120;fill-opacity:1;fill-rule:nonzero;stroke:none"
             d="m 0,0 c 2.345,0.994 76.367,-65.502 85.558,-84.273 4.031,-8.235 6.856,-17.127 9.561,-25.926 2.278,-7.412 -0.806,-13.589 -7.232,-17.402 -6.616,-3.925 -13.867,-5.591 -20.923,-0.723 -8.319,5.739 -14.168,13.76 -19.014,22.402 -11.431,20.387 -24.03,40.2 -31.698,62.503 -1.203,3.498 -2.915,6.911 -3.514,10.51 C 11.083,-22.973 0.623,-2.37 0,0" /></g><g
           transform="translate(516.9599,181.1381)"
           id="g52"><path
             id="path54"
             style="fill:#ef3120;fill-opacity:1;fill-rule:nonzero;stroke:none"
             d="m 0,0 c 2.375,-0.921 9.146,-100.194 2.66,-120.062 -2.845,-8.716 -7.013,-17.063 -11.204,-25.26 -3.529,-6.904 -10.045,-9.187 -17.312,-7.445 -7.48,1.794 -13.843,5.651 -15.513,14.059 -1.969,9.913 -0.576,19.742 1.969,29.317 6.004,22.589 10.769,45.58 20.808,66.922 1.574,3.347 2.723,6.988 4.801,9.987 C -8.055,-24.201 -1.204,-2.134 0,0" /></g><g
           transform="translate(830.7685,553.8786)"
           id="g56"><path
             id="path58"
             style="fill:#f47216;fill-opacity:1;fill-rule:nonzero;stroke:none"
             d="m 0,0 c 12.779,9.119 102,-18.199 130.469,-36.806 11.12,-7.268 10.909,-17.738 7.496,-25.731 -3.993,-9.352 -15.312,-13.994 -26.639,-10.933 -6.518,1.761 -13.219,3.698 -19.059,6.953 -19.903,11.092 -39.746,22.348 -59.026,34.474 -9.306,5.853 -17.525,13.54 -25.779,20.908 C 4.471,-8.466 2.809,-4.308 0,0" /></g><g
           transform="translate(651.1077,387.7817)"
           id="g60"><path
             id="path62"
             style="fill:#f47216;fill-opacity:1;fill-rule:nonzero;stroke:none"
             d="m 0,0 c 13.002,-5.018 33.162,-77.256 31.919,-104.35 -0.486,-10.582 -8.71,-14.719 -16.496,-15.65 -9.109,-1.091 -17.96,4.759 -20.835,13.764 -1.655,5.181 -3.258,10.559 -3.439,15.888 -0.618,18.157 -1.081,36.341 -0.608,54.495 0.228,8.763 2.384,17.531 4.276,26.193 C -4.498,-6.522 -2.042,-3.684 0,0" /></g><g
           transform="translate(548.061,385.5691)"
           id="g64"><path
             id="path66"
             style="fill:#fab20b;fill-opacity:1;fill-rule:nonzero;stroke:none"
             d="m 0,0 c 10.558,-9.098 5.257,-83.908 -5.024,-109.006 -4.016,-9.804 -13.152,-10.934 -20.797,-9.194 -8.946,2.036 -15.314,10.521 -14.995,19.968 0.184,5.436 0.483,11.04 2.103,16.119 5.523,17.309 11.201,34.59 17.75,51.528 3.161,8.176 8.14,15.708 12.834,23.23 C -6.429,-4.63 -3.161,-2.783 0,0" /></g><g
           transform="translate(86.7236,368.0139)"
           id="g68"><path
             id="path70"
             style="fill:#ef3120;fill-opacity:1;fill-rule:nonzero;stroke:none"
             d="m 0,0 c -5.151,2.022 -10.007,3.346 -14.274,5.729 -8.072,4.508 -11.894,15.89 -7.89,24.285 1.441,3.024 4.753,5.728 7.858,7.298 33.116,16.744 66.499,32.826 103.807,38.255 4.875,0.71 9.63,2.222 14.464,3.255 5.789,1.237 10.831,-0.036 15.516,-3.92 C 128.122,67.74 85.25,38.355 69.957,30.405 61.221,25.863 53.184,19.992 44.673,14.991 33.456,8.401 21.961,2.409 8.677,1.101 5.639,0.801 2.618,0.336 0,0" /></g><g
           transform="translate(913.5439,777.2346)"
           id="g72"><path
             id="path74"
             style="fill:#f25c19;fill-opacity:1;fill-rule:nonzero;stroke:none"
             d="m 0,0 c 1.778,2.546 32.845,26.045 47.204,34.495 16.783,9.877 35.403,14.349 54.782,15.476 14.066,0.817 28.266,3.38 41.947,-2.519 2.815,-1.214 5.833,-2.054 8.464,-3.576 3.937,-2.278 5.122,-7.782 2.277,-11.344 C 146.854,22.74 137.518,15.001 125.492,10.572 103.362,2.422 81.112,-4.16 57.055,-3.726 45.433,-3.516 6.261,-7.753 0,0" /></g><g
           transform="translate(234.8774,180.3906)"
           id="g76"><path
             id="path78"
             style="fill:#ef3120;fill-opacity:1;fill-rule:nonzero;stroke:none"
             d="M 0,0 C 1.343,2.739 3.336,5.241 5.383,7.538 23.177,27.514 74.984,63.089 80.127,62.463 91.507,61.078 63.877,-3.082 45.575,-23.484 42.283,-27.153 39.633,-31.391 36.608,-35.307 26.22,-48.754 16.552,-50.488 1.526,-42.007 -2.677,-39.633 -5.369,-10.951 0,0" /></g><g
           transform="translate(68.9587,702.1519)"
           id="g80"><path
             id="path82"
             style="fill:#ef3120;fill-opacity:1;fill-rule:nonzero;stroke:none"
             d="m 0,0 c 3.042,0.227 6.209,-0.227 9.226,-0.83 26.232,-5.246 83.125,-31.944 85.186,-36.696 4.562,-10.519 -64.761,-19.137 -91.618,-13.667 -4.83,0.983 -9.827,1.126 -14.734,1.755 -16.855,2.159 -48.217,11.344 -48.501,28.596 C -61.405,6.46 -12.162,-0.907 0,0" /></g><g
           transform="translate(446.7873,420.0426)"
           id="g84"><path
             id="path86"
             style="fill:#f47216;fill-opacity:1;fill-rule:nonzero;stroke:none"
             d="m 0,0 c -0.863,-7.241 -6.244,-24.22 -11.146,-28.948 -9.034,-8.714 -15.44,-19.287 -21.208,-30.244 -8.118,-15.421 -18.426,-29.226 -29.652,-42.48 -7.523,-8.883 -16.503,-14.722 -28.706,-16.504 -2.838,1.491 -6.349,2.842 -9.293,4.977 -8.367,6.068 -10.452,12.818 -6.936,22.677 8.535,23.937 23.313,43.549 42.941,59.358 C -51.04,-20.725 -5.312,7.117 0,0" /></g><g
           transform="translate(597.6144,267.0753)"
           id="g88"><path
             id="path90"
             style="fill:#f25c19;fill-opacity:1;fill-rule:nonzero;stroke:none"
             d="m 0,0 c 7.335,1.992 17.814,-29.037 21.675,-38.011 5.748,-13.36 5.991,-27.632 6.825,-41.711 1.055,-17.827 1.173,-35.709 1.742,-53.565 0.224,-7.005 -0.2,-13.892 -7.16,-17.755 -16.669,-9.25 -24.609,-3.886 -28.634,9.622 -4.597,15.423 -7.083,31.413 -6.618,47.422 C -11.364,-66.263 -4.672,-1.269 0,0" /></g><g
           transform="translate(683.7852,964.8435)"
           id="g92"><path
             id="path94"
             style="fill:#fab20b;fill-opacity:1;fill-rule:nonzero;stroke:none"
             d="m 0,0 c 0.932,2.285 1.892,4.57 3.02,6.762 4.924,9.577 14.246,14.503 24.406,12.19 9.755,-2.221 17.184,-5.089 13.76,-19.286 -4.328,-17.944 -9.621,-35.66 -14.714,-53.411 -1.861,-6.487 -3.976,-12.952 -6.618,-19.153 C 13.838,-87.02 -8.977,-121.406 -15.138,-121.32 -20.605,-121.244 -13.323,-32.682 0,0" /></g><g
           transform="translate(236.3773,556.306)"
           id="g96"><path
             id="path98"
             style="fill:#f25c19;fill-opacity:1;fill-rule:nonzero;stroke:none"
             d="m 0,0 c 1.748,-10.788 -36.205,-28.409 -50.012,-30.916 -25.4,-4.612 -51.185,-7.344 -76.962,-1.72 -2.386,0.521 -4.741,1.275 -7.028,2.137 -6.904,2.603 -7.975,5.149 -7.335,12.654 0.992,11.623 6.821,19.268 17.252,24.172 10.328,4.855 21.171,6.501 32.358,6.297 26.535,-0.483 52.759,-4.273 78.956,-8.08 C -8.171,3.876 -3.833,1.407 0,0" /></g><g
           transform="translate(609.4627,973.9418)"
           id="g100"><path
             id="path102"
             style="fill:#f25c19;fill-opacity:1;fill-rule:nonzero;stroke:none"
             d="m 0,0 c -14.966,31.48 -27.025,103.45 -27.002,120.701 0.025,19.734 8.461,23.602 27.307,22.892 6.208,-0.233 10.255,-3.822 11.518,-10.087 0.73,-3.618 1.61,-7.245 1.896,-10.909 C 16.263,90.05 6.046,-2.83 0,0" /></g><g
           transform="translate(766.7186,432.6783)"
           id="g104"><path
             id="path106"
             style="fill:#fab20b;fill-opacity:1;fill-rule:nonzero;stroke:none"
             d="m 0,0 c 11.543,2.119 64.928,-56.108 77.883,-72.511 5.658,-7.162 10.515,-15.149 14.559,-23.342 3.902,-7.906 2.491,-10.563 -3.656,-15.99 -10.195,-9 -23.678,-11.009 -34.58,0.133 -1.722,1.759 -3.887,3.169 -5.304,5.131 C 36.682,-89.648 -4.984,-0.915 0,0" /></g><g
           transform="translate(700.8984,148.7799)"
           id="g108"><path
             id="path110"
             style="fill:#ef3120;fill-opacity:1;fill-rule:nonzero;stroke:none"
             d="m 0,0 c 11.357,-2.956 35.145,-78.285 39.958,-98.626 2.102,-8.882 3.13,-18.172 3.334,-27.307 0.196,-8.814 -2.205,-10.627 -10.069,-12.948 -13.043,-3.851 -26.112,0.025 -31.287,14.729 -0.817,2.323 -2.184,4.514 -2.639,6.892 C -4.626,-96.752 -4.904,1.276 0,0" /></g><g
           transform="translate(1051.0723,449.6026)"
           id="g112"><path
             id="path114"
             style="fill:#ef3120;fill-opacity:1;fill-rule:nonzero;stroke:none"
             d="m 0,0 c 8.474,8.119 85.086,-11.142 104.928,-17.715 8.665,-2.869 17.114,-6.867 24.997,-11.485 7.608,-4.456 7.891,-7.452 5.743,-15.364 -3.563,-13.125 -13.719,-22.219 -28.952,-18.911 -2.406,0.522 -4.989,0.508 -7.252,1.368 C 79.946,-54.69 -3.659,-3.506 0,0" /></g><g
           transform="translate(945.3428,915.2482)"
           id="g116"><path
             id="path118"
             style="fill:#ef3120;fill-opacity:1;fill-rule:nonzero;stroke:none"
             d="m 0,0 c -1.525,11.636 59.36,61.969 76.405,74.067 7.443,5.283 15.668,9.725 24.057,13.343 8.096,3.492 10.677,1.947 15.782,-4.469 8.467,-10.643 9.781,-24.211 -1.904,-34.529 -1.845,-1.63 -3.363,-3.719 -5.396,-5.034 C 91.409,32.042 0.658,-5.024 0,0" /></g><g
           transform="translate(500.2344,1034.7561)"
           id="g120"><path
             id="path122"
             style="fill:#ef3120;fill-opacity:1;fill-rule:nonzero;stroke:none"
             d="m 0,0 c -11.284,3.226 -33.271,79.1 -37.598,99.549 -1.89,8.93 -2.697,18.242 -2.683,27.379 0.014,8.817 2.458,10.571 10.374,12.705 13.131,3.539 26.105,-0.647 30.928,-15.47 0.762,-2.342 2.076,-4.565 2.474,-6.953 C 6.929,96.615 4.872,-1.393 0,0" /></g><g
           transform="translate(162.5881,298.2029)"
           id="g124"><path
             id="path126"
             style="fill:#f25c19;fill-opacity:1;fill-rule:nonzero;stroke:none"
             d="m 0,0 c 1.361,2.573 3.076,8.203 6.648,12.154 16.589,18.347 34.155,36.555 57.916,44.577 19.023,6.421 69.88,33.4 73.99,29.49 C 141.719,83.209 128.233,61.824 122.481,57.34 110.334,47.87 51.247,-3.845 38.699,-8.153 29.973,-11.149 21.193,-14.194 12.208,-16.173 1.743,-18.477 -2.731,-13.309 0,0" /></g><g
           transform="translate(1056.5564,689.1563)"
           id="g128"><path
             id="path130"
             style="fill:#ef3120;fill-opacity:1;fill-rule:nonzero;stroke:none"
             d="m 0,0 c 4.518,6.053 10.238,11.031 17.52,12.889 16.672,4.255 33.479,8.02 50.326,11.534 13.847,2.889 27.801,5.31 41.764,7.588 8.508,1.388 17.109,2.278 25.698,3.055 3.803,0.344 7.721,-3.031 7.638,-6.485 -0.338,-14.124 -3.488,-26.951 -17.285,-34.342 -8.804,-4.717 -17.795,-7.553 -28.204,-7.21 C 75.305,-12.239 -4.166,-5.58 0,0" /></g><g
           transform="translate(727.7679,1030.0703)"
           id="g132"><path
             id="path134"
             style="fill:#ef3120;fill-opacity:1;fill-rule:nonzero;stroke:none"
             d="m 0,0 c -4.099,6.345 -6.772,13.44 -5.976,20.913 1.821,17.11 4.149,34.176 6.726,51.191 2.117,13.986 4.71,27.909 7.441,41.791 1.664,8.457 3.826,16.83 6.091,25.151 1.003,3.685 5.532,6.181 8.741,4.9 13.121,-5.239 24.046,-12.661 26.166,-28.169 1.353,-9.896 0.879,-19.311 -3.071,-28.948 C 37.713,66.32 3.779,-5.849 0,0" /></g><g
           transform="translate(540.3748,894.7573)"
           id="g136"><path
             id="path138"
             style="fill:#f47216;fill-opacity:1;fill-rule:nonzero;stroke:none"
             d="m 0,0 c -0.397,-6.679 -3.04,-52.871 -8.371,-51.554 -6.389,1.578 -10.72,5.478 -14.179,11.042 -9.237,14.862 -15.982,30.814 -19.986,47.729 -4.973,21.015 -4.218,42.676 -5.613,64.084 -0.118,1.812 0.333,3.695 0.729,5.5 1.749,7.985 7.454,11.328 15.227,8.773 9.969,-3.276 17.164,-9.797 20.891,-19.604 C -5.357,50.325 -0.553,34.354 -0.024,17.434 0.131,12.487 0,7.53 0,0" /></g><g
           transform="translate(816.5574,808.2906)"
           id="g140"><path
             id="path142"
             style="fill:#f47216;fill-opacity:1;fill-rule:nonzero;stroke:none"
             d="m 0,0 c -8.993,-4.053 -17.83,-8.519 -27.044,-11.983 -4.452,-1.673 -9.808,-2.32 -13.88,1.806 -2.968,3.007 -1.965,10.067 2.529,15.267 21.826,25.252 43.587,50.578 74.76,65.176 4.427,2.073 8.036,5.889 12.461,7.973 4.358,2.052 9.198,3.669 13.957,4.131 5.889,0.572 10.596,-4.364 10.586,-10.341 C 73.347,59.982 70.591,49.359 61.51,40.085 47.463,25.74 30.9,15.47 13.416,6.305 9.048,4.015 4.427,2.206 -0.078,0.175 -0.052,0.117 -0.026,0.058 0,0" /></g><g
           transform="translate(976.6785,681.5598)"
           id="g144"><path
             id="path146"
             style="fill:#fab20b;fill-opacity:1;fill-rule:nonzero;stroke:none"
             d="m 0,0 c -12.94,-12.2 -54.226,-11.466 -58.517,-11.144 -11.023,0.828 -49.056,2.507 -57.02,2.996 -9.19,0.565 -33.202,4.89 -35.827,6.463 -4.601,2.759 57.149,23.364 77.579,28.649 21.837,5.648 42.788,-0.17 62.859,-9.137 C -3.567,14.54 0.506,8.783 0,0" /></g><g
           transform="translate(154.3838,995.1327)"
           id="g148"><path
             id="path150"
             style="fill:#ef3120;fill-opacity:1;fill-rule:nonzero;stroke:none"
             d="m 0,0 c 7.669,6.767 15.695,6.258 22.772,2.093 24.868,-14.636 77.76,-60.243 81.94,-64.768 2.919,-3.159 14.17,-18.243 11.337,-23.317 C 112.603,-92.164 9.531,-42.598 4.88,-35.376 -2.701,-23.603 -13.865,-14.927 0,0" /></g><g
           transform="translate(229.1343,650.1829)"
           id="g152"><path
             id="path154"
             style="fill:#f47216;fill-opacity:1;fill-rule:nonzero;stroke:none"
             d="m 0,0 c 11.314,8.011 23.307,13.598 36.345,12.677 26.934,-1.905 54.146,-1.836 80.534,-9.216 8.062,-2.254 14.524,-5.974 19.308,-11.981 -0.373,-6.712 -4.613,-9.374 -9.497,-10.676 -11.865,-3.163 -23.756,-6.399 -35.818,-8.62 -18.94,-3.487 -38.119,-3.887 -56.799,1.187 C 25.334,-24.256 17.046,-19.812 8.985,-15.5 3.993,-12.829 1.167,-7.792 0,0" /></g><g
           transform="translate(417.9432,463.6276)"
           id="g156"><path
             id="path158"
             style="fill:#fab20b;fill-opacity:1;fill-rule:nonzero;stroke:none"
             d="m 0,0 c -1.602,0.103 -2.888,-0.024 -4.053,0.296 -4.722,1.297 -9.932,2.166 -12.139,7.309 -2.334,5.438 0.969,9.405 4.32,13.203 12.273,13.909 24.847,27.436 39.466,39.055 9.905,7.873 20.693,13.335 32.746,16.653 1.189,0.327 2.316,0.979 3.518,1.143 7.599,1.034 14.931,0.537 20.482,-5.565 C 87.771,68.322 85.605,58.909 77.968,52.57 60.422,38.006 43.362,22.872 25.732,8.425 18.34,2.367 8.956,0.908 0,0" /></g><g
           transform="translate(620.0627,432.55)"
           id="g160"><path
             id="path162"
             style="fill:#fab20b;fill-opacity:1;fill-rule:nonzero;stroke:none"
             d="m 0,0 c -1.211,-10.71 -1.922,-21.773 -3.859,-32.617 -1.562,-8.749 -6.704,-12.503 -15.306,-13.389 -8.112,-0.835 -12.586,1.692 -15.87,9.393 -8.039,18.851 -7.183,38.538 -4.291,58.097 1.594,10.775 11.266,43.891 18.35,42.576 C -13.651,62.699 -1.647,16.299 0,0" /></g><g
           transform="translate(309.5765,844.5217)"
           id="g164"><path
             id="path166"
             style="fill:#fab20b;fill-opacity:1;fill-rule:nonzero;stroke:none"
             d="m 0,0 c 14.849,0.988 30.585,1.269 41.563,-8.33 31.327,-16.171 66.333,-67.271 64.214,-70.826 -2.04,-3.421 -34.8,4.067 -46.97,9.839 -15.678,7.436 -29.38,18.251 -41.459,30.623 C 11.01,-32.203 6.158,-24.08 1.519,-16.175 -1.181,-11.573 -3.318,-6.057 0,0" /></g><g
           transform="translate(267.7484,466.6323)"
           id="g168"><path
             id="path170"
             style="fill:#fab20b;fill-opacity:1;fill-rule:nonzero;stroke:none"
             d="M 0,0 C 6.333,13.467 13.715,27.367 27.431,32.317 56.759,51.881 118.423,57.733 120.505,54.156 122.509,50.714 100.081,25.688 89.133,17.841 75.03,7.732 58.929,0.989 42.254,-3.581 33.504,-5.978 24.047,-6.285 14.884,-6.511 9.55,-6.642 3.689,-5.838 0,0" /></g><g
           transform="translate(595.0571,757.59)"
           id="g172"><path
             id="path174"
             style="fill:#fab20b;fill-opacity:1;fill-rule:nonzero;stroke:none"
             d="m 0,0 c -12.768,-2.481 -27.508,58.651 -20.198,82.12 1.722,5.528 5.548,9.436 10.881,11.805 7.872,3.495 14.516,1.377 18.71,-6.125 1.191,-2.131 2.146,-4.413 3.025,-6.697 5.13,-13.338 6.841,-27.37 7.359,-41.461 C 20.288,25.754 2.385,0.463 0,0" /></g><g
           transform="translate(813.1714,743.4223)"
           id="g176"><path
             id="path178"
             style="fill:#fab20b;fill-opacity:1;fill-rule:nonzero;stroke:none"
             d="m 0,0 c -0.424,-12.909 -7.719,-21.979 -20.236,-25.299 -8.943,-2.372 -17.958,-4.534 -26.759,-7.361 -11.238,-3.611 -42.841,-22.414 -49.773,-21.381 -7.541,1.124 20.123,39.855 31.596,48.237 11.534,8.426 23.958,15.407 37.528,19.953 4.534,1.518 9.679,2.347 14.404,1.924 C -2.908,15.149 0.351,10.687 0,0" /></g><g
           transform="translate(711.2277,555.1086)"
           id="g180"><path
             id="path182"
             style="fill:#fab20b;fill-opacity:1;fill-rule:nonzero;stroke:none"
             d="m 0,0 c 9.029,8.875 53.581,-8.052 62.948,-17.422 4.747,-4.75 10.275,-8.792 15.774,-12.698 9.641,-6.849 14.048,-16.944 17.431,-27.567 2.166,-6.799 -1.041,-12.68 -7.676,-14.501 -12.598,-3.456 -24.501,-3.174 -33.738,8.021 -9.802,11.88 -20.114,23.375 -29.309,35.705 C 20.166,-21.404 0.068,-5.751 0,0" /></g><g
           transform="translate(516.9879,392.087)"
           id="g184"><path
             id="path186"
             style="fill:#fff64d;fill-opacity:1;fill-rule:nonzero;stroke:none"
             d="m 0,0 c -6.874,-8.058 -21.19,-9.795 -30.519,-4.645 -6.214,3.43 -8.536,8.368 -7.222,15.352 0.114,0.605 0.107,1.263 0.351,1.809 8.517,19.063 34.772,66.98 45.837,63.761 C 13.689,74.752 17.033,19.968 0,0" /></g><g
           transform="translate(700.3078,824.3351)"
           id="g188"><path
             id="path190"
             style="fill:#fff64d;fill-opacity:1;fill-rule:nonzero;stroke:none"
             d="m 0,0 c 8.726,6.004 23.003,3.976 30.681,-3.415 5.114,-4.921 6.079,-10.292 3.001,-16.698 -0.267,-0.555 -0.43,-1.192 -0.807,-1.656 C 19.713,-37.977 -18.052,-77.464 -27.906,-71.49 -32.575,-68.66 -21.622,-14.878 0,0" /></g><g
           transform="translate(469.656,818.1509)"
           id="g192"><path
             id="path194"
             style="fill:#fff64d;fill-opacity:1;fill-rule:nonzero;stroke:none"
             d="m 0,0 c 8.607,0.43 15.068,-2.675 20.253,-8.475 2.037,-2.277 4.204,-4.702 5.362,-7.459 8.092,-19.259 15.964,-38.611 23.807,-57.974 0.67,-1.654 0.768,-3.591 0.875,-5.412 0.265,-4.531 -3.17,-8.329 -7.761,-8.573 -9.708,-0.516 -18.425,3.044 -25.559,8.876 -6.539,5.346 -12.45,11.936 -17.133,18.979 -9.392,14.126 -13.718,30.114 -13.217,47.142 C -13.092,-3.346 -9.068,0.02 0,0" /></g><g
           transform="translate(820.7272,642.1897)"
           id="g196"><path
             id="path198"
             style="fill:#fff64d;fill-opacity:1;fill-rule:nonzero;stroke:none"
             d="m 0,0 c 8.379,-1.225 19.262,-2.988 30.195,-4.361 9.178,-1.154 14.218,-7.195 17.268,-14.868 5.37,-13.511 0.258,-18.426 -11.004,-18.444 -14.172,-0.022 -58.341,9.11 -66.891,9.84 -7.348,0.627 -38.03,7.949 -38.563,11.101 -0.348,2.055 2.442,5.544 4.716,6.933 3.576,2.184 7.801,3.971 11.926,4.47 C -35.864,-3.339 -19.308,-1.911 0,0" /></g><g
           transform="translate(669.8859,479.0201)"
           id="g200"><path
             id="path202"
             style="fill:#fff64d;fill-opacity:1;fill-rule:nonzero;stroke:none"
             d="m 0,0 c 3.7,4.326 7.787,5.736 13.243,3.798 9.195,-3.265 15.913,-8.21 19.281,-18.216 3.327,-9.883 8.842,-19.013 13.132,-28.593 2.259,-5.044 4.63,-10.199 5.749,-15.556 1.96,-9.376 1.45,-18.569 -6.705,-25.941 -18.207,-3.099 -24.664,-0.28 -31.276,16.242 -3.635,9.081 -5.997,18.805 -7.811,28.45 C 3.231,-27.151 1.956,-14.278 0,0" /></g><g
           transform="translate(622.4631,580.3701)"
           id="g204"><path
             id="path206"
             style="fill:#ef3120;fill-opacity:1;fill-rule:nonzero;stroke:none"
             d="m 0,0 c 13.336,6.481 49.698,-48.914 51.369,-66.412 0.339,-3.56 -0.352,-7.218 -0.544,-10.431 -19.247,-7.486 -27.28,-4.983 -34.667,11.797 C 10.202,-51.517 -2.231,-14.341 0,0" /></g><g
           transform="translate(383.846,698.0521)"
           id="g208"><path
             id="path210"
             style="fill:#fab20b;fill-opacity:1;fill-rule:nonzero;stroke:none"
             d="m 0,0 c 5.163,6.844 12.547,7.946 19.791,5.428 25.763,-8.956 49.544,-21.619 69.861,-40.15 3.766,-3.435 2.914,-8.076 1.632,-12.086 -1.168,-3.652 -4.361,-5.672 -8.508,-5.937 -8.754,-0.559 -17.261,0.264 -25.091,4.499 C 43.62,-40.641 29.516,-33.095 15.661,-25.12 4.169,-18.505 3.208,-16.468 0,0" /></g><g
           transform="translate(559.05,694.8658)"
           id="g212"><path
             id="path214"
             style="fill:#ef3120;fill-opacity:1;fill-rule:nonzero;stroke:none"
             d="m 0,0 c -3.477,10.846 -3.822,21.821 -2.674,32.928 0.585,5.67 4.057,8.888 9.469,9.658 8.898,1.265 15.817,-2.41 20.788,-9.388 2.829,-3.973 5.134,-8.548 6.649,-13.187 C 39.428,4.099 41.043,-41.855 30.271,-42.076 27.253,-42.138 4.761,-14.85 0,0" /></g><g
           transform="translate(626.5976,656.2246)"
           id="g216"><path
             id="path218"
             style="fill:#f47216;fill-opacity:1;fill-rule:nonzero;stroke:none"
             d="m 0,0 c -8.165,0.384 -3.198,52.072 8.46,67.639 5.951,7.947 14.167,13.698 25.249,13.062 7.016,-0.402 11.85,-4.253 12.25,-11.088 C 46.321,63.431 45.615,57.537 41.867,51.999 34.278,40.788 3.565,-0.167 0,0" /></g><g
           transform="translate(575.6712,518.8953)"
           id="g220"><path
             id="path222"
             style="fill:#f47216;fill-opacity:1;fill-rule:nonzero;stroke:none"
             d="m 0,0 c -5.332,-9.364 -14.038,-15.461 -25.763,-15.255 -6.89,0.121 -11.545,4.457 -12.034,11.383 -0.129,1.841 -0.331,3.777 0.068,5.541 4.101,18.11 35.535,65.191 39.214,66.828 C 12.353,73.333 7.373,12.948 0,0" /></g><g
           transform="translate(715.0845,595.3123)"
           id="g224"><path
             id="path226"
             style="fill:#f47216;fill-opacity:1;fill-rule:nonzero;stroke:none"
             d="m 0,0 c 3.701,-2.018 7.211,-4.896 9.91,-8.131 4.676,-5.603 2.187,-15.184 -4.574,-16.642 -17.078,-3.681 -34.096,-6.024 -48.846,7.457 -3.989,3.645 -24.324,15.675 -24.639,22.473 C -68.37,9.908 -11.959,6.52 0,0" /></g><g
           transform="translate(452.3014,583.6028)"
           id="g228"><path
             id="path230"
             style="fill:#fff64d;fill-opacity:1;fill-rule:nonzero;stroke:none"
             d="m 0,0 c -1.333,-2.148 -1.72,-3.637 -2.636,-4.119 -16.919,-8.893 -34.542,-15.856 -53.742,-17.638 -4.791,-0.444 -9.759,0.63 -14.607,1.288 -5.905,0.803 -9.971,4.469 -12.943,9.363 -2.761,4.547 -1.441,10.237 2.856,12.93 1.555,0.975 3.193,1.9 4.912,2.517 20.592,7.386 41.58,10.234 63.275,5.662 C -7.147,8.795 -2.476,6.56 0,0" /></g><g
           transform="translate(501.0363,607.643)"
           id="g232"><path
             id="path234"
             style="fill:#ef3120;fill-opacity:1;fill-rule:nonzero;stroke:none"
             d="m 0,0 c 14.613,4.886 26.157,6.542 37.982,5.549 2.987,-0.251 6.098,-1.042 8.79,-2.339 4.49,-2.163 5.826,-8.683 2.96,-12.777 -1.057,-1.51 -2.072,-3.332 -3.575,-4.205 -14.3,-8.295 -27.85,-18.679 -45.385,-18.922 -5.41,-0.074 -11.001,0.976 -16.226,2.491 -5.52,1.601 -7.156,6.817 -4.684,11.841 C -15.208,-8.343 -7.131,-2.156 0,0" /></g><g
           transform="translate(533.3792,637.8924)"
           id="g236"><path
             id="path238"
             style="fill:#f47216;fill-opacity:1;fill-rule:nonzero;stroke:none"
             d="m 0,0 c -1.788,0.546 -5.363,1.268 -8.615,2.718 -4.998,2.228 -9.746,5.011 -14.649,7.461 -9.639,4.815 -14.213,13.19 -16.25,23.249 -0.908,4.482 1.564,8.731 5.749,10.384 7.249,2.861 14.738,3.273 21.199,-1.292 C -1.384,34.62 7.794,24.705 13.536,12.046 16.774,4.907 13.584,0.252 5.524,0.005 4.296,-0.032 3.066,0 0,0" /></g><g
           transform="translate(660.2899,647.1051)"
           id="g240"><path
             id="path242"
             style="fill:#ef3120;fill-opacity:1;fill-rule:nonzero;stroke:none"
             d="m 0,0 c 1.487,1.134 4.158,3.617 7.232,5.413 4.725,2.76 9.755,4.993 14.605,7.548 C 31.37,17.982 40.841,16.813 50.2,12.6 54.371,10.724 56.38,6.237 55.281,1.874 53.377,-5.683 49.344,-12.006 41.867,-14.592 28.928,-19.068 15.522,-20.74 1.89,-18.021 c -7.688,1.533 -9.609,6.84 -5.108,13.531 0.686,1.019 1.43,2 3.218,4.49" /></g></g></g></g></svg>